Coordinates
version=1
nRows=16
nColumns=40
inDegrees=yes

Units are S.I. units (second, meters, Newtons, ...)
Angles are in degrees.

endheader
time	pelvis_tilt	pelvis_list	pelvis_rotation	pelvis_tx	pelvis_ty	pelvis_tz	hip_flexion_r	hip_adduction_r	hip_rotation_r	knee_angle_r	knee_angle_r_beta	ankle_angle_r	subtalar_angle_r	mtp_angle_r	hip_flexion_l	hip_adduction_l	hip_rotation_l	knee_angle_l	knee_angle_l_beta	ankle_angle_l	subtalar_angle_l	mtp_angle_l	lumbar_extension	lumbar_bending	lumbar_rotation	arm_flex_r	arm_add_r	arm_rot_r	elbow_flex_r	pro_sup_r	wrist_flex_r	wrist_dev_r	arm_flex_l	arm_add_l	arm_rot_l	elbow_flex_l	pro_sup_l	wrist_flex_l	wrist_dev_l
     24.17142857	     -5.70802316	     -6.41255915	      6.41293497	      1.06205895	      0.92996557	      0.47449832	     11.46482936	      4.87370499	    -18.64000690	     12.51367135	     12.51367135	      9.23047052	      4.96377160	     -3.52513035	     40.99459729	    -11.73193596	      3.27648432	     45.52537339	     45.52537339	      9.28402528	    -17.64632278	     14.27188788	    -13.68455229	      6.05752446	      4.00022405	     29.06289540	    -17.51686174	      2.93491248	     73.32229326	     44.70641393	      0.00000000	      0.00000000	     -0.70094793	     -7.86177662	      1.12145425	     30.97937968	     46.61380619	      0.00000000	      0.00000000
     24.18285714	     -5.85182531	     -6.47860711	      6.34529983	      1.06025511	      0.92973497	      0.47465228	     10.96884695	      5.05568530	    -18.67372261	     12.09199655	     12.09199655	      9.46748483	      5.38666851	     -3.59038411	     41.11579103	    -11.48070011	      3.39836569	     41.94610827	     41.94610827	      9.31054261	    -16.64719465	     14.12127939	    -13.66382879	      6.05632539	      4.03442777	     31.51951286	    -17.31161137	      2.75032191	     75.38734042	     44.66199550	      0.00000000	      0.00000000	     -2.01483235	     -7.93871259	      1.33987054	     30.02068196	     46.55287455	      0.00000000	      0.00000000
     24.19428571	     -5.97538389	     -6.58671123	      6.27146585	      1.05857949	      0.92942052	      0.47463934	     10.42827968	      5.27440658	    -18.75780832	     11.64033505	     11.64033505	      9.70912485	      5.89917389	     -3.67024526	     41.10760632	    -11.28646804	      3.55977564	     38.36010926	     38.36010926	      9.35344986	    -15.30646744	     13.81121921	    -13.64960164	      6.12177857	      4.05331608	     33.91672682	    -17.11350774	      2.70462986	     77.58718304	     44.60939108	      0.00000000	      0.00000000	     -3.32191429	     -7.97700627	      1.62650365	     29.14513062	     46.48033162	      0.00000000	      0.00000000
     24.20571429	     -6.08469467	     -6.74214013	      6.18757694	      1.05701281	      0.92901175	      0.47448527	      9.85383029	      5.54145066	    -18.86187500	     11.16176794	     11.16176794	      9.94937040	      6.45033570	     -3.75628647	     41.00387217	    -11.16706344	      3.70275704	     34.84323116	     34.84323116	      9.37356607	    -13.72370934	     13.44725289	    -13.63687192	      6.24409623	      4.11658291	     36.25140790	    -16.97909814	      2.74198703	     79.81199240	     44.55493641	      0.00000000	      0.00000000	     -4.60668117	     -7.97229040	      1.99862460	     28.43900525	     46.39253586	      0.00000000	      0.00000000
     24.21714286	     -6.18226868	     -6.94394740	      6.08733312	      1.05565573	      0.92849377	      0.47420385	      9.21272357	      5.85680417	    -18.98396808	     10.59729161	     10.59729161	     10.15287077	      7.16453697	     -3.83990775	     40.82626972	    -11.14047538	      3.75651690	     31.49508055	     31.49508055	      9.20422776	    -12.03100192	     12.69305137	    -13.60141483	      6.44183433	      4.29322091	     38.45770962	    -17.03351368	      2.97407266	     82.35575695	     44.49629089	      0.00000000	      0.00000000	     -5.89042179	     -8.01950257	      2.80815524	     28.04176618	     46.22468156	      0.00000000	      0.00000000
     24.22857143	     -6.40622958	     -7.25520835	      5.93832796	      1.05422239	      0.92758319	      0.47382866	      8.92406576	      6.22823604	    -18.90320034	     10.43192178	     10.43192178	     10.46219596	      7.35836554	     -3.98865618	     40.85840596	    -11.16977526	      3.93039718	     28.56400714	     28.56400714	      9.19502267	    -10.70138901	     13.05489193	    -13.32979118	      6.70372812	      4.80019179	     40.72607657	    -17.24334243	      2.65436043	     83.40366227	     44.48525681	      0.00000000	      0.00000000	     -7.04499823	     -7.92249064	      2.94600818	     27.66796888	     46.18060397	      0.00000000	      0.00000000
     24.24000000	     -6.28180994	     -7.29939370	      5.84092511	      1.05341955	      0.92738054	      0.47319616	      7.82881095	      6.44573224	    -18.89967955	      9.56178505	      9.56178505	     10.68028714	      8.09039634	     -3.98032742	     40.26946237	    -11.10824489	      3.48622939	     25.78137201	     25.78137201	      9.20770804	     -8.98920240	     13.24053857	    -13.50412188	      6.74168495	      4.51814011	     42.92230747	    -16.53640354	      3.00503108	     85.89097927	     44.42234594	      0.00000000	      0.00000000	     -8.52885224	     -8.01209115	      3.83188960	     27.66276097	     45.99608488	      0.00000000	      0.00000000
     24.25142857	     -6.27454664	     -7.41370770	      5.67012261	      1.05261023	      0.92682533	      0.47248037	      7.07961677	      6.65814275	    -18.73298286	      9.12389305	      9.12389305	     10.99325313	      8.44640761	     -4.04625884	     39.84245857	    -11.08087878	      3.07236459	     23.47712044	     23.47712044	      9.04879582	     -7.90404523	     13.72356930	    -13.49024079	      6.81431089	      4.63258607	     45.00336801	    -16.27520488	      2.98654129	     87.33696470	     44.39524891	      0.00000000	      0.00000000	     -9.82272296	     -7.98543404	      4.30628326	     27.57783710	     45.88904508	      0.00000000	      0.00000000
     24.26285714	     -6.24746269	     -7.59491280	      5.53189716	      1.05204359	      0.92614056	      0.47157878	      6.23444854	      6.94526555	    -18.60627039	      8.56058628	      8.56058628	     11.29325202	      8.92692306	     -4.05740110	     39.49406499	    -11.10148827	      2.61071920	     21.81516328	     21.81516328	      8.89741901	     -7.12830945	     14.22323368	    -13.43748607	      6.98784345	      4.62147114	     47.00387276	    -15.87318557	      3.11682846	     88.88194074	     44.36237303	      0.00000000	      0.00000000	    -11.21907286	     -7.95699093	      4.93679383	     27.72236296	     45.75354564	      0.00000000	      0.00000000
     24.27428571	     -6.30099050	     -7.79529996	      5.37327591	      1.05154855	      0.92522295	      0.47051891	      5.58635722	      7.19239492	    -18.44888300	      8.23173921	      8.23173921	     11.67022624	      9.23803139	     -4.10990177	     39.26168572	    -11.12927952	      2.09084091	     20.69849528	     20.69849528	      8.60165438	     -6.78048261	     14.65008771	    -13.23237610	      7.21208678	      4.80802261	     48.96635222	    -15.67844956	      3.07839823	     89.99379811	     44.34279816	      0.00000000	      0.00000000	    -12.33271429	     -7.84032623	      5.31711993	     27.77132446	     45.66856921	      0.00000000	      0.00000000
     24.28571429	     -6.26803735	     -7.93834189	      5.19110766	      1.05135896	      0.92434774	      0.46935073	      4.78851208	      7.38924824	    -18.23434456	      7.85265263	      7.85265263	     12.07987059	      9.59634162	     -4.09768879	     38.87814704	    -11.14167073	      1.46796372	     20.04138094	     20.04138094	      8.24360857	     -6.77441129	     14.98846897	    -13.11329409	      7.35163835	      4.80833278	     50.79130034	    -15.28693496	      3.18206263	     91.24756793	     44.31440891	      0.00000000	      0.00000000	    -13.59863120	     -7.74360341	      5.76390874	     27.93311126	     45.56940920	      0.00000000	      0.00000000
     24.29714286	     -6.20041505	     -8.10360833	      5.00487872	      1.05149542	      0.92337010	      0.46808027	      3.97603419	      7.57703704	    -18.08873897	      7.59719045	      7.59719045	     12.80363825	     10.11032319	     -3.32386758	     38.43627792	    -11.18239822	      0.95153019	     19.82945820	     19.82945820	      7.55739115	     -7.20546158	     14.51876015	    -12.95323286	      7.47943852	      4.45234156	     52.44926409	    -14.85022708	      4.18456216	     92.31929642	     44.34465923	      0.00000000	      0.00000000	    -16.41660148	     -8.81999384	     10.16430933	     32.16941706	     44.83018580	      0.00000000	      0.00000000
     24.30857143	     -6.27118654	     -8.23674635	      4.72488531	      1.05167878	      0.92211950	      0.46674340	      3.42379716	      7.67351364	    -17.75295402	      7.54827496	      7.54827496	     13.30149990	     10.30493753	     -3.44777920	     38.10915144	    -11.24734176	      0.35695407	     20.04411961	     20.04411961	      7.11009496	     -7.68104334	     14.67427552	    -12.56781551	      7.55337432	      4.72725680	     53.73656795	    -14.75907592	      4.01635553	     92.93212805	     44.33875793	      0.00000000	      0.00000000	    -17.35004096	     -8.65412079	     10.36270034	     31.87251824	     44.79178450	      0.00000000	      0.00000000
     24.32000000	     -6.14189904	     -8.36564547	      4.51880009	      1.05211234	      0.92097622	      0.46514809	      2.64827148	      7.76617658	    -17.45684311	      7.54908803	      7.54908803	     14.16625320	     10.46893068	     -2.63121899	     37.42344261	    -11.21614275	      0.27415260	     20.29652537	     20.29652537	      5.74723174	     -9.04851925	     12.95966710	    -12.49254471	      7.71497802	      4.53661419	     55.12829899	    -14.30323207	      4.52289943	     94.48211178	     44.35860808	      0.00000000	      0.00000000	    -18.92711878	     -9.20516191	     13.32819362	     33.75549298	     44.43444001	      0.00000000	      0.00000000
     24.33142857	     -6.16181374	     -8.42490877	      4.17247783	      1.05269141	      0.91962567	      0.46361981	      2.08750323	      7.73475065	    -17.06554433	      7.66698156	      7.66698156	     14.73604316	     10.60335600	     -2.77555394	     36.91000230	    -11.28519125	     -0.19803032	     20.97519972	     20.97519972	      5.31033758	     -9.66690707	     13.01240322	    -12.11675417	      7.70304524	      4.71000464	     56.13693153	    -14.16768180	      4.42909142	     95.04258047	     44.35143354	      0.00000000	      0.00000000	    -19.76707822	     -9.02507279	     13.49776309	     33.55738817	     44.40572449	      0.00000000	      0.00000000
     24.34285714	     -6.08309736	     -8.53567283	      3.90607695	      1.05328305	      0.91818943	      0.46191613	      1.57044717	      7.71902085	    -16.68783680	      8.07233747	      8.07233747	     15.47490403	     10.47094076	     -2.78481583	     36.37121227	    -11.32215509	     -0.20347112	     21.89092819	     21.89092819	      4.74758138	    -10.72788802	     12.71112448	    -11.94274519	      7.81078503	      4.49479847	     57.19864956	    -13.63643375	      4.66707872	     96.20581842	     44.32105282	      0.00000000	      0.00000000	    -20.68290228	     -8.88557325	     13.81792197	     33.79070309	     44.36431892	      0.00000000	      0.00000000
